HIERARCHY
ROOT SpineBase
{
  OFFSET 0.000000 0.000000 0.000000
  CHANNELS 6 Xposition Yposition Zposition Zrotation Xrotation Yrotation
  JOINT SpineMid
  {
    OFFSET -0.000000 34.586241 0.000000
    CHANNELS 3 Zrotation Xrotation Yrotation
    JOINT SpineShoulder
    {
      OFFSET 0.324236 25.701874 -1.018970
      CHANNELS 3 Zrotation Xrotation Yrotation
      JOINT Neck
      {
        OFFSET 0.209835 8.479133 -0.706863
        CHANNELS 3 Zrotation Xrotation Yrotation
        JOINT Head
        {
          OFFSET -2.894151 13.686282 3.014378
          CHANNELS 3 Zrotation Xrotation Yrotation
          End Site
          {
            OFFSET 0 0 0
          }
        }
      }
      JOINT ShoulderLeft
      {
        OFFSET -16.962965 -7.183000 -4.273774
        CHANNELS 3 Zrotation Xrotation Yrotation
        JOINT ElbowLeft
        {
          OFFSET -4.916346 -28.958733 6.174933
          CHANNELS 3 Zrotation Xrotation Yrotation
          JOINT WristLeft
          {
            OFFSET -2.697518 -26.508788 10.177110
            CHANNELS 3 Zrotation Xrotation Yrotation
            JOINT HandLeft
            {
              OFFSET -0.041394 -4.453009 -0.036960
              CHANNELS 3 Zrotation Xrotation Yrotation
              JOINT HandTipLeft
              {
                OFFSET 0.786437 -4.502982 -1.859812
                CHANNELS 3 Zrotation Xrotation Yrotation
                End Site
                {
                  OFFSET 0 0 0
                }
              }
              JOINT ThumbLeft
              {
                OFFSET 2.229111 -4.088776 -4.069620
                CHANNELS 3 Zrotation Xrotation Yrotation
                End Site
                {
                  OFFSET 0 0 0
                }
              }
            }
          }
        }
      }
      JOINT ShoulderRight
      {
        OFFSET 15.287137 -5.538231 -5.312843
        CHANNELS 3 Zrotation Xrotation Yrotation
        JOINT ElbowRight
        {
          OFFSET 7.653400 -27.501999 4.050652
          CHANNELS 3 Zrotation Xrotation Yrotation
          JOINT WristRight
          {
            OFFSET 3.948550 -25.754383 7.814160
            CHANNELS 3 Zrotation Xrotation Yrotation
            JOINT HandRight
            {
              OFFSET -0.067349 -6.635808 1.814615
              CHANNELS 3 Zrotation Xrotation Yrotation
              JOINT HandTipRight
              {
                OFFSET -1.323151 -6.021285 -0.543754
                CHANNELS 3 Zrotation Xrotation Yrotation
                End Site
                {
                  OFFSET 0 0 0
                }
              }
              JOINT ThumbRight
              {
                OFFSET -4.044088 1.447100 -0.306066
                CHANNELS 3 Zrotation Xrotation Yrotation
                End Site
                {
                  OFFSET 0 0 0
                }
              }
            }
          }
        }
      }
    }
  }
  JOINT HipLeft
  {
    OFFSET -6.367105 1.613309 -2.958001
    CHANNELS 3 Zrotation Xrotation Yrotation
    JOINT KneeLeft
    {
      OFFSET -0.927877 -37.290155 -3.725067
      CHANNELS 3 Zrotation Xrotation Yrotation
      JOINT AnkleLeft
      {
        OFFSET -0.294356 -28.810666 -2.345876
        CHANNELS 3 Zrotation Xrotation Yrotation
        JOINT FootLeft
        {
          OFFSET 0.564514 -2.861887 -13.816636
          CHANNELS 3 Zrotation Xrotation Yrotation
          End Site
          {
            OFFSET 0 0 0
          }
        }
      }
    }
  }
  JOINT HipRight
  {
    OFFSET 8.151499 2.407025 -3.556026
    CHANNELS 3 Zrotation Xrotation Yrotation
    JOINT KneeRight
    {
      OFFSET 1.383048 -38.000909 -2.311989
      CHANNELS 3 Zrotation Xrotation Yrotation
      JOINT AnkleRight
      {
        OFFSET 0.118110 -27.017701 -2.888241
        CHANNELS 3 Zrotation Xrotation Yrotation
        JOINT FootRight
        {
          OFFSET 0.324378 -2.843857 -13.866005
          CHANNELS 3 Zrotation Xrotation Yrotation
          End Site
          {
            OFFSET 0 0 0
          }
        }
      }
    }
  }
}
MOTION
Frames: 6
Frame Time: 0.033333
-50.459685 67.413490 191.037049 -0.097585 0.019336 2.740352 0.096549 -0.023980 -2.740316 -0.000000 0.000000 0.000000 0.284951 -1.326920 -0.340757 0.000000 0.000000 0.000000 -0.377193 0.719240 -0.200326 0.766697 1.153984 0.164123 -6.518151 -5.565037 -0.279507 6.071048 6.572720 0.244043 0.000000 0.000000 0.000000 0.000000 0.000000 0.000000 -0.000000 0.000000 0.000000 -2.449290 -2.612049 -1.195246 -1.680266 4.609304 0.214888 7.045611 -7.337043 2.389177 0.000000 0.000000 0.000000 0.000000 0.000000 0.000000 -0.791752 1.250782 -2.666802 -0.187940 -0.396435 0.013939 0.898442 -0.832954 1.061103 0.000000 0.000000 0.000000 -1.225060 1.478499 -2.586575 1.388500 -1.440898 -0.119503 0.011887 -1.143335 -0.197881 0.000000 0.000000 0.000000
-50.444991 67.402817 191.070326 -0.129338 0.020805 2.683128 0.128222 -0.026837 -2.683074 -0.000000 0.000000 0.000000 0.161630 -1.364470 -0.322973 0.000000 0.000000 0.000000 -0.373421 0.770801 -0.208158 0.650853 1.132198 0.126486 -4.870481 -4.614573 -0.116616 4.813921 4.480391 0.031661 0.000000 0.000000 0.000000 0.000000 0.000000 0.000000 -0.000000 0.000000 0.000000 -2.500403 -2.507643 -1.194049 -2.303338 3.436517 0.027392 7.832886 -5.776121 2.357073 0.000000 0.000000 0.000000 0.000000 0.000000 0.000000 -0.728067 1.286941 -2.613816 -0.221737 -0.416278 0.017428 0.913404 -0.851233 1.001283 0.000000 0.000000 0.000000 -1.190561 1.519579 -2.527414 1.386152 -1.486339 -0.120497 -0.171765 -0.203946 0.821172 0.000000 0.000000 0.000000
-50.426220 67.393534 191.089908 -0.145630 0.022755 2.637105 0.144429 -0.029431 -2.637039 -0.000000 0.000000 0.000000 -0.015025 -1.386068 -0.290772 0.000000 0.000000 0.000000 -0.311894 0.876474 -0.213172 0.471954 1.167352 0.071903 -2.843620 -3.272234 0.052011 1.890149 1.817320 0.389954 0.000000 0.000000 0.000000 0.000000 0.000000 0.000000 -0.821832 0.305408 -0.033946 -1.767783 -2.758916 -1.189514 -3.154558 1.848755 -0.233232 9.841210 -2.057519 1.830161 0.000000 0.000000 0.000000 0.000000 0.000000 0.000000 -0.671409 1.305972 -2.572745 -0.246651 -0.510234 0.020320 0.908184 -0.786885 0.950996 0.000000 0.000000 0.000000 -1.180042 1.537520 -2.480021 0.457299 -1.675443 -0.048156 0.510417 1.108698 2.000175 0.000000 0.000000 0.000000
-50.396989 67.382432 191.100229 -0.151617 0.030295 2.605089 0.150084 -0.037154 -2.605000 -0.000000 0.000000 0.000000 -0.139727 -1.400890 -0.267976 0.000000 0.000000 0.000000 -0.215409 1.018112 -0.217210 0.238309 1.092592 0.015309 -0.019581 -2.109867 0.205389 -1.936080 -0.079838 0.786956 0.000000 0.000000 0.000000 0.000000 0.000000 0.000000 -0.956896 0.303917 -0.053973 -1.792777 -2.781917 -1.226149 -3.564599 0.607208 -0.375274 11.763961 1.569308 1.039308 0.000000 0.000000 0.000000 0.000000 0.000000 0.000000 -0.633408 1.305049 -2.544608 -0.344158 -0.395781 0.027588 0.982709 -0.896322 0.903256 0.000000 0.000000 0.000000 -1.200361 1.536403 -2.445973 0.627572 -1.746464 -0.061808 0.585928 0.267855 0.907876 0.000000 0.000000 0.000000
-50.359337 67.371174 191.106679 -0.152264 0.033290 2.570875 0.150618 -0.040086 -2.570779 -0.000000 0.000000 0.000000 -0.193241 -1.402691 -0.257222 0.000000 0.000000 0.000000 -0.125395 1.158004 -0.222511 0.044339 0.988946 -0.024919 1.389530 -0.301605 0.251364 -6.380464 -6.386180 0.963124 0.000000 0.000000 0.000000 0.000000 0.000000 0.000000 -1.069700 0.296483 -0.072497 -1.859356 -2.821601 -1.274647 -3.889113 -0.488464 -0.494709 11.780741 2.738808 1.042319 0.000000 0.000000 0.000000 0.000000 0.000000 0.000000 -0.608407 1.301080 -2.513237 -0.444428 -0.233209 0.034950 1.071446 -1.050215 0.835584 0.000000 0.000000 0.000000 -1.242487 1.539561 -2.408452 0.656889 -1.725648 -0.062713 0.612172 0.244702 0.840241 0.000000 0.000000 0.000000
-50.315174 67.363162 191.105012 -0.148944 0.044055 2.527381 0.146857 -0.050580 -2.527259 -0.000000 0.000000 0.000000 -0.208842 -1.429534 -0.259732 0.000000 0.000000 0.000000 -0.032640 1.281204 -0.224639 -0.141472 0.871118 -0.061881 2.914591 0.960472 0.266872 -9.313815 -11.088085 0.483976 0.000000 0.000000 0.000000 0.000000 0.000000 0.000000 -1.144831 0.287448 -0.086029 -1.981971 -2.879859 -1.338024 -4.019059 -1.345803 -0.554916 11.218896 3.563695 1.139603 0.000000 0.000000 0.000000 0.000000 0.000000 0.000000 -0.610577 1.280660 -2.470010 -0.539518 -0.054778 0.041668 1.180563 -1.209354 0.751188 0.000000 0.000000 0.000000 -1.299110 1.524714 -2.361629 0.692134 -1.709362 -0.063559 0.645015 0.238840 0.757671 0.000000 0.000000 0.000000
